%TF.GenerationSoftware,KiCad,Pcbnew,7.0.2*%
%TF.CreationDate,2023-05-16T18:38:39-05:00*%
%TF.ProjectId,PCBCharacterization,50434243-6861-4726-9163-746572697a61,rev?*%
%TF.SameCoordinates,Original*%
%TF.FileFunction,Copper,L1,Top*%
%TF.FilePolarity,Positive*%
%FSLAX46Y46*%
G04 Gerber Fmt 4.6, Leading zero omitted, Abs format (unit mm)*
G04 Created by KiCad (PCBNEW 7.0.2) date 2023-05-16 18:38:39*
%MOMM*%
%LPD*%
G01*
G04 APERTURE LIST*
%TA.AperFunction,Conductor*%
%ADD10C,0.152400*%
%TD*%
%TA.AperFunction,Conductor*%
%ADD11C,0.203200*%
%TD*%
%TA.AperFunction,Conductor*%
%ADD12C,0.254000*%
%TD*%
%TA.AperFunction,Conductor*%
%ADD13C,0.304800*%
%TD*%
%TA.AperFunction,Conductor*%
%ADD14C,0.457200*%
%TD*%
%TA.AperFunction,Conductor*%
%ADD15C,0.609600*%
%TD*%
%TA.AperFunction,Conductor*%
%ADD16C,0.762000*%
%TD*%
%TA.AperFunction,Conductor*%
%ADD17C,1.016000*%
%TD*%
G04 APERTURE END LIST*
D10*
%TO.N,*%
X125000000Y-90000000D02*
X125000000Y-100000000D01*
X125304800Y-90000000D02*
X125304800Y-100000000D01*
X125685800Y-90000000D02*
X125685800Y-100000000D01*
X126143000Y-90000000D02*
X126143000Y-100000000D01*
X126752600Y-90000000D02*
X126752600Y-100000000D01*
D11*
X127514600Y-90000000D02*
X127514600Y-100000000D01*
X127870200Y-90000000D02*
X127870200Y-100000000D01*
X128302000Y-90000000D02*
X128302000Y-100000000D01*
X128810000Y-90000000D02*
X128810000Y-100000000D01*
X129470400Y-90000000D02*
X129470400Y-100000000D01*
D12*
X130283200Y-90000000D02*
X130283200Y-100000000D01*
X130689600Y-90000000D02*
X130689600Y-100000000D01*
X131172200Y-90000000D02*
X131172200Y-100000000D01*
X131731000Y-90000000D02*
X131731000Y-100000000D01*
X132442200Y-90000000D02*
X132442200Y-100000000D01*
D13*
X133305800Y-90000000D02*
X133305800Y-100000000D01*
X133763000Y-90000000D02*
X133763000Y-100000000D01*
X134296400Y-90000000D02*
X134296400Y-100000000D01*
X134906000Y-90000000D02*
X134906000Y-100000000D01*
X135668000Y-90000000D02*
X135668000Y-100000000D01*
D14*
X136582400Y-90000000D02*
X136582400Y-100000000D01*
X137192000Y-90000000D02*
X137192000Y-100000000D01*
X137877800Y-90000000D02*
X137877800Y-100000000D01*
X138639800Y-90000000D02*
X138639800Y-100000000D01*
X139554200Y-90000000D02*
X139554200Y-100000000D01*
D15*
X140621000Y-90000000D02*
X140621000Y-100000000D01*
X141383000Y-90000000D02*
X141383000Y-100000000D01*
X142221200Y-90000000D02*
X142221200Y-100000000D01*
X143135600Y-90000000D02*
X143135600Y-100000000D01*
X144202400Y-90000000D02*
X144202400Y-100000000D01*
D16*
X145421600Y-90000000D02*
X145421600Y-100000000D01*
X146336000Y-90000000D02*
X146336000Y-100000000D01*
X147326600Y-90000000D02*
X147326600Y-100000000D01*
X148393400Y-90000000D02*
X148393400Y-100000000D01*
X149612600Y-90000000D02*
X149612600Y-100000000D01*
D17*
X150984200Y-90000000D02*
X150984200Y-100000000D01*
X152152600Y-90000000D02*
X152152600Y-100000000D01*
X153397200Y-90000000D02*
X153397200Y-100000000D01*
X154718000Y-90000000D02*
X154718000Y-100000000D01*
X156191200Y-90000000D02*
X156191200Y-100000000D01*
%TD*%
M02*
