<?xml version="1.0" standalone="no"?>
 <!DOCTYPE svg PUBLIC "-//W3C//DTD SVG 1.1//EN" 
 "http://www.w3.org/Graphics/SVG/1.1/DTD/svg11.dtd"> 
<svg
  xmlns:svg="http://www.w3.org/2000/svg"
  xmlns="http://www.w3.org/2000/svg"
  xmlns:xlink="http://www.w3.org/1999/xlink"
  version="1.1"
  width="297.0022mm" height="210.0072mm" viewBox="0.0000 0.0000 297.0022 210.0072">
<title>SVG Image created as PCBCharacterization-F_Cu.svg date 2023/05/16 18:39:33 </title>
  <desc>Image generated by PCBNEW </desc>
<g style="fill:#000000; fill-opacity:1.0000;stroke:#000000; stroke-opacity:1.0000;
stroke-linecap:round; stroke-linejoin:round;"
 transform="translate(0 0) scale(1 1)">
</g>
<g style="fill:#000000; fill-opacity:0.0; 
stroke:#000000; stroke-width:0.0000; stroke-opacity:1; 
stroke-linecap:round; stroke-linejoin:round;">
<g >
</g>
<g >
</g>
<g style="fill:#000000; fill-opacity:0.0; 
stroke:#000000; stroke-width:0.0000; stroke-opacity:1; 
stroke-linecap:round; stroke-linejoin:round;">
</g>
<g style="fill:#000000; fill-opacity:0.0; 
stroke:#000000; stroke-width:0.1524; stroke-opacity:1; 
stroke-linecap:round; stroke-linejoin:round;">
<path d="M125.0000 90.0000
L125.0000 100.0000
" />
<path d="M125.3048 90.0000
L125.3048 100.0000
" />
<path d="M125.6858 90.0000
L125.6858 100.0000
" />
<path d="M126.1430 90.0000
L126.1430 100.0000
" />
<path d="M126.7526 90.0000
L126.7526 100.0000
" />
</g>
<g style="fill:#000000; fill-opacity:0.0; 
stroke:#000000; stroke-width:0.2032; stroke-opacity:1; 
stroke-linecap:round; stroke-linejoin:round;">
<path d="M127.5146 90.0000
L127.5146 100.0000
" />
<path d="M127.8702 90.0000
L127.8702 100.0000
" />
<path d="M128.3020 90.0000
L128.3020 100.0000
" />
<path d="M128.8100 90.0000
L128.8100 100.0000
" />
<path d="M129.4704 90.0000
L129.4704 100.0000
" />
</g>
<g style="fill:#000000; fill-opacity:0.0; 
stroke:#000000; stroke-width:0.2540; stroke-opacity:1; 
stroke-linecap:round; stroke-linejoin:round;">
<path d="M130.2832 90.0000
L130.2832 100.0000
" />
<path d="M130.6896 90.0000
L130.6896 100.0000
" />
<path d="M131.1722 90.0000
L131.1722 100.0000
" />
<path d="M131.7310 90.0000
L131.7310 100.0000
" />
<path d="M132.4422 90.0000
L132.4422 100.0000
" />
</g>
<g style="fill:#000000; fill-opacity:0.0; 
stroke:#000000; stroke-width:0.3048; stroke-opacity:1; 
stroke-linecap:round; stroke-linejoin:round;">
<path d="M133.3058 90.0000
L133.3058 100.0000
" />
<path d="M133.7630 90.0000
L133.7630 100.0000
" />
<path d="M134.2964 90.0000
L134.2964 100.0000
" />
<path d="M134.9060 90.0000
L134.9060 100.0000
" />
<path d="M135.6680 90.0000
L135.6680 100.0000
" />
</g>
<g style="fill:#000000; fill-opacity:0.0; 
stroke:#000000; stroke-width:0.4572; stroke-opacity:1; 
stroke-linecap:round; stroke-linejoin:round;">
<path d="M136.5824 90.0000
L136.5824 100.0000
" />
<path d="M137.1920 90.0000
L137.1920 100.0000
" />
<path d="M137.8778 90.0000
L137.8778 100.0000
" />
<path d="M138.6398 90.0000
L138.6398 100.0000
" />
<path d="M139.5542 90.0000
L139.5542 100.0000
" />
</g>
<g style="fill:#000000; fill-opacity:0.0; 
stroke:#000000; stroke-width:0.6096; stroke-opacity:1; 
stroke-linecap:round; stroke-linejoin:round;">
<path d="M140.6210 90.0000
L140.6210 100.0000
" />
<path d="M141.3830 90.0000
L141.3830 100.0000
" />
<path d="M142.2212 90.0000
L142.2212 100.0000
" />
<path d="M143.1356 90.0000
L143.1356 100.0000
" />
<path d="M144.2024 90.0000
L144.2024 100.0000
" />
</g>
<g style="fill:#000000; fill-opacity:0.0; 
stroke:#000000; stroke-width:0.7620; stroke-opacity:1; 
stroke-linecap:round; stroke-linejoin:round;">
<path d="M145.4216 90.0000
L145.4216 100.0000
" />
<path d="M146.3360 90.0000
L146.3360 100.0000
" />
<path d="M147.3266 90.0000
L147.3266 100.0000
" />
<path d="M148.3934 90.0000
L148.3934 100.0000
" />
<path d="M149.6126 90.0000
L149.6126 100.0000
" />
</g>
<g style="fill:#000000; fill-opacity:0.0; 
stroke:#000000; stroke-width:1.0160; stroke-opacity:1; 
stroke-linecap:round; stroke-linejoin:round;">
<path d="M150.9842 90.0000
L150.9842 100.0000
" />
<path d="M152.1526 90.0000
L152.1526 100.0000
" />
<path d="M153.3972 90.0000
L153.3972 100.0000
" />
<path d="M154.7180 90.0000
L154.7180 100.0000
" />
<path d="M156.1912 90.0000
L156.1912 100.0000
" />
</g>
<g >
</g>
</g> 
</svg>
